<?xml version="1.0" standalone="no"?>
<!DOCTYPE svg PUBLIC "-//W3C//DTD SVG 20010904//EN"
 "http://www.w3.org/TR/2001/REC-SVG-20010904/DTD/svg10.dtd">
<svg version="1.0" xmlns="http://www.w3.org/2000/svg"
 width="240.000000pt" height="240.000000pt" viewBox="0 0 240.000000 240.000000"
 preserveAspectRatio="xMidYMid meet">
<metadata>
Created by potrace 1.14, written by Peter Selinger 2001-2017
</metadata>
<g transform="translate(0.000000,240.000000) scale(0.100000,-0.100000)"
fill="#000000" stroke="none">
<path d="M63 1790 c-13 -5 -32 -24 -43 -42 -20 -32 -20 -46 -18 -560 l3 -528
28 -27 27 -28 518 -3 c554 -2 546 -3 584 49 17 23 19 46 21 248 l1 222 258
-258 258 -258 103 0 c119 0 174 14 278 67 105 53 199 149 253 256 150 298 25
668 -274 813 -105 51 -153 57 -483 58 -295 1 -310 1 -342 -19 -18 -11 -38 -33
-43 -48 -5 -16 -10 -152 -10 -303 -1 -151 -1 -281 -1 -289 -1 -8 -146 132
-323 311 -178 179 -333 331 -345 337 -26 14 -416 15 -450 2z"/>
</g>
</svg>
