<svg width="55" height="28" viewBox="0 0 55 28" fill="none" xmlns="http://www.w3.org/2000/svg">
<path d="M3.96775 27.8786C2.57891 27.8786 1.88449 27.8786 1.35402 27.5976C0.887406 27.3504 0.508038 26.956 0.270287 26.4708C0 25.9193 0 25.1973 0 23.7532V4.12539C0 2.68137 0 1.95936 0.270287 1.40781C0.508038 0.922663 0.887406 0.528223 1.35402 0.281026C1.88449 2.98023e-08 2.57891 0 3.96775 0H9.90328C10.5098 0 10.8131 9.68575e-08 11.0985 0.0712407C11.3515 0.134402 11.5934 0.23858 11.8153 0.379948C12.0656 0.539399 12.28 0.762366 12.7089 1.2083L26.6583 15.7119V4.12539C26.6583 2.68137 26.6583 1.95936 26.9286 1.40781C27.1664 0.922663 27.5457 0.528223 28.0123 0.281026C28.5428 2.98023e-08 29.2372 0 30.6261 0H40.6849C48.0892 0 54.0916 6.24084 54.0916 13.9393C54.0916 21.6378 48.0892 27.8786 40.6849 27.8786H40.0036C39.397 27.8786 39.0938 27.8786 38.8084 27.8074C38.5553 27.7442 38.3134 27.64 38.0916 27.4987C37.8413 27.3392 37.6269 27.1163 37.198 26.6703L26.6583 15.7119V23.7532C26.6583 25.1973 26.6583 25.9193 26.388 26.4708C26.1503 26.956 25.7709 27.3504 25.3043 27.5976C24.7738 27.8786 24.0794 27.8786 22.6906 27.8786H3.96775Z" fill="white"/>
</svg>
